<svg width="48" height="48" xmlns="http://www.w3.org/2000/svg">

 <g>
  <title>background</title>
  <rect fill="none" id="canvas_background" height="402" width="582" y="-1" x="-1"/>
 </g>
 <g>
  <title>Layer 1</title>
  <path id="svg_2" fill="#ffffff" d="m34.66833,26.373249c-0.11816,-0.30566 -0.28857,-0.52539 -0.46045,-0.7207c-0.25146,-0.24414 -0.51904,-0.41797 -0.8208,-0.52539c-1.18018,-0.8125 -1.96826,-1.76855 -2.40772,-2.92285c-0.00305,-0.00793 -0.00952,-0.01306 -0.01306,-0.02063l-1.31702,-3.41882c-0.80566,-2.10352 -2.40137,-3.77344 -4.49072,-4.69922c-1.35278,-0.60559 -2.80066,-0.828 -4.20782,-0.68048l-0.02313,-0.05975c-0.22168,-0.57812 -0.65771,-1.03613 -1.22705,-1.28906s-1.20215,-0.27051 -1.77832,-0.04785c-0.57764,0.22266 -1.03516,0.6582 -1.28857,1.22754c-0.25293,0.56934 -0.27002,1.2002 -0.04785,1.77832l0.01929,0.05023c-3.008,2.28394 -4.16516,6.26819 -2.80396,9.79938l1.32306,3.45502c0.00049,0.00128 0.00018,0.00269 0.00067,0.00397c0.4292,1.13184 0.48828,2.3877 0.17627,3.73242c-0.33936,0.55957 -0.4043,1.24707 -0.17139,1.85254c0.00198,0.00513 0.00397,0.01025 0.00598,0.01535c0.29112,0.73838 1.17953,1.04707 1.92106,0.76407l16.76032,-6.39637c0.75859,-0.28953 1.13946,-1.13865 0.85121,-1.89772l0,0zm-18.56933,-2.54004c-0.02246,0.00391 -0.04492,0.00586 -0.06689,0.00586c-0.16406,0 -0.31055,-0.11621 -0.34326,-0.2832c-0.07715,-0.40039 -0.12012,-0.80957 -0.12695,-1.21777c-0.00293,-0.19336 0.15088,-0.35254 0.34424,-0.35547c0.00195,0 0.00391,0 0.00586,0c0.19092,0 0.34668,0.15234 0.3501,0.34375c0.00586,0.36719 0.04443,0.73633 0.11426,1.09668c0.0366,0.18945 -0.08742,0.37305 -0.27736,0.41015zm2.87988,-6.85644c-0.46484,0.33008 -0.88477,0.7207 -1.24805,1.16113c-0.58984,0.7168 -1.02588,1.56934 -1.26123,2.46582c-0.04102,0.15723 -0.18311,0.26074 -0.33838,0.26074c-0.0293,0 -0.05908,-0.00293 -0.08887,-0.01074c-0.18701,-0.0498 -0.29883,-0.24023 -0.24951,-0.42773c0.26025,-0.99316 0.74365,-1.93848 1.39795,-2.7334c0.40234,-0.48828 0.86768,-0.9209 1.38379,-1.28613c0.15625,-0.11328 0.37549,-0.07617 0.48779,0.08301c0.11182,0.15722 0.07422,0.37597 -0.08349,0.4873z"/>
  <path id="svg_3" fill="#ffffff" d="m25.0791,32.46466l-0.65363,0.25134l-4.18738,1.61023l-0.65363,0.25128c0.29492,0.54974 0.75378,0.99011 1.34021,1.2467c0.36719,0.16113 0.75537,0.24121 1.14453,0.24121c0.34473,0 0.68994,-0.0625 1.02051,-0.19043l0.25781,-0.09863c0.70312,-0.27051 1.26172,-0.7998 1.57275,-1.48828c0.26265,-0.58288 0.30806,-1.21765 0.15883,-1.82342z"/>
 </g>
</svg>