<svg width="32" height="32" xmlns="http://www.w3.org/2000/svg">

 <g>
  <title>background</title>
  <rect fill="none" id="canvas_background" height="34" width="34" y="-1" x="-1"/>
 </g>
 <g>
  <title>Layer 1</title>
  <path stroke="null" fill="#ffffff" id="svg_1" d="m19.112566,7.565331l5.006079,6.469032c0.299466,0.357337 0.4492,0.844055 0.4492,1.38006c0,0.536005 -0.149733,1.016562 -0.4492,1.38006l-5.006079,6.493676c-0.593942,0.770123 -1.562216,0.770123 -2.156158,0c-0.593942,-0.770123 -0.593942,-2.014641 0,-2.784764l2.405713,-3.105135l-10.830699,0c-0.848488,0 -1.532269,-0.88102 -1.532269,-1.971514c0,-1.090494 0.683781,-1.971514 1.527278,-1.971514l10.830699,0l-2.405713,-3.105135c-0.593942,-0.770123 -0.593942,-2.014641 0,-2.784764c0.598933,-0.770123 1.562216,-0.770123 2.161149,0z"/>
 </g>
</svg>